ffmpeg started on 2025-05-12 at 16:19:45
Report written to "D:\Convert\FFMetrics\reports\ssim_report-6.txt"
Log level: 32
Command line:
ffmpeg -hide_banner -nostdin -i "G:\\\xc0\xed\xe8\xec\xe5\\\xce\xed\xe3\xee\xe8\xed\xe3\xe8\\!_35_\xcb\xe5\xf2\xee_2024\\DreamCast\\\xcc\xe0\xeb\xe5\xed\xfc\xea\xe8\xe9 \xe3\xf0\xe0\xe6\xe4\xe0\xed\xe8\xed\\[DC] Shoushimin Series - 09_Telegram_HEVC.mkv" -i "G:\\\xc0\xed\xe8\xec\xe5\\\xce\xed\xe3\xee\xe8\xed\xe3\xe8\\!_35_\xcb\xe5\xf2\xee_2024\\DreamCast\\\xcc\xe0\xeb\xe5\xed\xfc\xea\xe8\xe9 \xe3\xf0\xe0\xe6\xe4\xe0\xed\xe8\xed\\[DC] Shoushimin Series - 09_Telegram.mp4" -lavfi "[0:v]settb=AVTB,setpts=PTS-STARTPTS,format=pix_fmts=yuv420p10,fps=24000/1001,scale=1920:1080:flags=bicubic[main];[1:v]settb=AVTB,setpts=PTS-STARTPTS,format=pix_fmts=yuv420p,fps=24000/1001,scale=1920:1080:flags=bicubic[ref];[main][ref]ssim=eof_action=endall:stats_file='D\\:/Convert/FFMetrics/logs/ssim_logfile-6.txt'" -f null -
Input #0, matroska,webm, from 'G:\Аниме\Онгоинги\!_35_Лето_2024\DreamCast\Маленький гражданин\[DC] Shoushimin Series - 09_Telegram_HEVC.mkv':
  Metadata:
    COMPATIBLE_BRANDS: isomiso2avc1mp41
    MAJOR_BRAND     : isom
    MINOR_VERSION   : 512
    ENCODER         : Lavf61.7.100
  Duration: 00:22:55.70, start: -0.021000, bitrate: 716 kb/s
  Stream #0:0: Video: hevc (Main 10), yuv420p10le(tv, bt709, progressive), 1920x1080 [SAR 1:1 DAR 16:9], 23.98 fps, 23.98 tbr, 1k tbn (default)
      Metadata:
        HANDLER_NAME    : VideoHandler
        VENDOR_ID       : [0][0][0][0]
        ENCODER         : Lavc61.19.100 libx265
        BPS             : 519739
        DURATION        : 00:22:54.581708333
        NUMBER_OF_FRAMES: 32957
        NUMBER_OF_BYTES : 89302967
        _STATISTICS_WRITING_APP: mkvpropedit v66.0.0 ('Josie') 64-bit
        _STATISTICS_WRITING_DATE_UTC: 2025-05-08 09:23:12
        _STATISTICS_TAGS: BPS DURATION NUMBER_OF_FRAMES NUMBER_OF_BYTES
  Stream #0:1: Audio: aac (LC), 48000 Hz, stereo, fltp (default)
      Metadata:
        HANDLER_NAME    : SoundHandler
        VENDOR_ID       : [0][0][0][0]
        ENCODER         : Lavc61.19.100 aac
        BPS             : 192822
        DURATION        : 00:22:55.701000000
        NUMBER_OF_FRAMES: 64487
        NUMBER_OF_BYTES : 33158265
        _STATISTICS_WRITING_APP: mkvpropedit v66.0.0 ('Josie') 64-bit
        _STATISTICS_WRITING_DATE_UTC: 2025-05-08 09:23:12
        _STATISTICS_TAGS: BPS DURATION NUMBER_OF_FRAMES NUMBER_OF_BYTES
Input #1, mov,mp4,m4a,3gp,3g2,mj2, from 'G:\Аниме\Онгоинги\!_35_Лето_2024\DreamCast\Маленький гражданин\[DC] Shoushimin Series - 09_Telegram.mp4':
  Metadata:
    major_brand     : isom
    minor_version   : 512
    compatible_brands: isomiso2avc1mp41
    encoder         : Lavf60.12.100
  Duration: 00:22:55.66, start: 0.000000, bitrate: 1807 kb/s
  Stream #1:0[0x1](und): Video: h264 (High) (avc1 / 0x31637661), yuv420p(tv, bt709, progressive), 1920x1080 [SAR 1:1 DAR 16:9], 1660 kb/s, 23.98 fps, 23.98 tbr, 24k tbn (default)
      Metadata:
        handler_name    : VideoHandler
        vendor_id       : [0][0][0][0]
        encoder         : Lavc60.26.100 h264_qsv
  Stream #1:1[0x2](und): Audio: aac (HE-AACv2) (mp4a / 0x6134706D), 48000 Hz, stereo, fltp, 144 kb/s (default)
      Metadata:
        handler_name    : SoundHandler
        vendor_id       : [0][0][0][0]
Stream mapping:
  Stream #0:0 (hevc) -> settb:default
  Stream #1:0 (h264) -> settb:default
  ssim:default -> Stream #0:0 (wrapped_avframe)
  Stream #0:1 -> #0:1 (aac (native) -> pcm_s16le (native))
Output #0, null, to 'pipe:':
  Metadata:
    COMPATIBLE_BRANDS: isomiso2avc1mp41
    MAJOR_BRAND     : isom
    MINOR_VERSION   : 512
    encoder         : Lavf61.7.100
  Stream #0:0: Video: wrapped_avframe, yuv420p10le(tv, bt709, progressive), 1920x1080 [SAR 1:1 DAR 16:9], q=2-31, 200 kb/s, 23.98 fps, 23.98 tbn
      Metadata:
        encoder         : Lavc61.19.100 wrapped_avframe
  Stream #0:1: Audio: pcm_s16le, 48000 Hz, stereo, s16, 1536 kb/s (default)
      Metadata:
        HANDLER_NAME    : SoundHandler
        VENDOR_ID       : [0][0][0][0]
        _STATISTICS_TAGS: BPS DURATION NUMBER_OF_FRAMES NUMBER_OF_BYTES
        BPS             : 192822
        DURATION        : 00:22:55.701000000
        NUMBER_OF_FRAMES: 64487
        NUMBER_OF_BYTES : 33158265
        _STATISTICS_WRITING_APP: mkvpropedit v66.0.0 ('Josie') 64-bit
        _STATISTICS_WRITING_DATE_UTC: 2025-05-08 09:23:12
        encoder         : Lavc61.19.100 pcm_s16le
frame=  175 fps=0.0 q=-0.0 size=N/A time=00:00:07.29 bitrate=N/A speed=  14x    frame=  384 fps=374 q=-0.0 size=N/A time=00:00:16.01 bitrate=N/A speed=15.6x    frame=  569 fps=367 q=-0.0 size=N/A time=00:00:23.73 bitrate=N/A speed=15.3x    frame=  799 fps=388 q=-0.0 size=N/A time=00:00:33.32 bitrate=N/A speed=16.2x    frame= 1022 fps=396 q=-0.0 size=N/A time=00:00:42.62 bitrate=N/A speed=16.5x    frame= 1227 fps=397 q=-0.0 size=N/A time=00:00:51.17 bitrate=N/A speed=16.6x    frame= 1425 fps=395 q=-0.0 size=N/A time=00:00:59.43 bitrate=N/A speed=16.5x    frame= 1616 fps=392 q=-0.0 size=N/A time=00:01:07.40 bitrate=N/A speed=16.4x    frame= 1827 fps=393 q=-0.0 size=N/A time=00:01:16.20 bitrate=N/A speed=16.4x    frame= 2041 fps=396 q=-0.0 size=N/A time=00:01:25.12 bitrate=N/A speed=16.5x    frame= 2265 fps=399 q=-0.0 size=N/A time=00:01:34.46 bitrate=N/A speed=16.7x    frame= 2534 fps=410 q=-0.0 size=N/A time=00:01:45.68 bitrate=N/A speed=17.1x    frame= 2816 fps=420 q=-0.0 size=N/A time=00:01:57.45 bitrate=N/A speed=17.5x    frame= 3096 fps=429 q=-0.0 size=N/A time=00:02:09.12 bitrate=N/A speed=17.9x    frame= 3370 fps=436 q=-0.0 size=N/A time=00:02:20.55 bitrate=N/A speed=18.2x    frame= 3644 fps=442 q=-0.0 size=N/A time=00:02:31.98 bitrate=N/A speed=18.4x    frame= 3921 fps=447 q=-0.0 size=N/A time=00:02:43.53 bitrate=N/A speed=18.7x    frame= 4207 fps=453 q=-0.0 size=N/A time=00:02:55.46 bitrate=N/A speed=18.9x    frame= 4483 fps=457 q=-0.0 size=N/A time=00:03:06.97 bitrate=N/A speed=19.1x    frame= 4752 fps=460 q=-0.0 size=N/A time=00:03:18.19 bitrate=N/A speed=19.2x    frame= 5032 fps=464 q=-0.0 size=N/A time=00:03:29.87 bitrate=N/A speed=19.4x    frame= 5310 fps=467 q=-0.0 size=N/A time=00:03:41.47 bitrate=N/A speed=19.5x    frame= 5572 fps=470 q=-0.0 size=N/A time=00:03:52.39 bitrate=N/A speed=19.6x    frame= 5862 fps=473 q=-0.0 size=N/A time=00:04:04.49 bitrate=N/A speed=19.7x    frame= 6136 fps=475 q=-0.0 size=N/A time=00:04:15.92 bitrate=N/A speed=19.8x    frame= 6422 fps=479 q=-0.0 size=N/A time=00:04:27.85 bitrate=N/A speed=  20x    frame= 6701 fps=481 q=-0.0 size=N/A time=00:04:39.48 bitrate=N/A speed=20.1x    frame= 6974 fps=483 q=-0.0 size=N/A time=00:04:50.87 bitrate=N/A speed=20.1x    frame= 7240 fps=484 q=-0.0 size=N/A time=00:05:01.96 bitrate=N/A speed=20.2x    frame= 7533 fps=486 q=-0.0 size=N/A time=00:05:14.18 bitrate=N/A speed=20.3x    frame= 7813 fps=488 q=-0.0 size=N/A time=00:05:25.86 bitrate=N/A speed=20.4x    frame= 8098 fps=490 q=-0.0 size=N/A time=00:05:37.75 bitrate=N/A speed=20.5x    frame= 8379 fps=492 q=-0.0 size=N/A time=00:05:49.47 bitrate=N/A speed=20.5x    frame= 8661 fps=494 q=-0.0 size=N/A time=00:06:01.23 bitrate=N/A speed=20.6x    frame= 8947 fps=495 q=-0.0 size=N/A time=00:06:13.16 bitrate=N/A speed=20.7x    frame= 9233 fps=497 q=-0.0 size=N/A time=00:06:25.09 bitrate=N/A speed=20.7x    frame= 9516 fps=498 q=-0.0 size=N/A time=00:06:36.89 bitrate=N/A speed=20.8x    frame= 9790 fps=499 q=-0.0 size=N/A time=00:06:48.32 bitrate=N/A speed=20.8x    frame=10062 fps=500 q=-0.0 size=N/A time=00:06:59.66 bitrate=N/A speed=20.8x    frame=10330 fps=501 q=-0.0 size=N/A time=00:07:10.84 bitrate=N/A speed=20.9x    frame=10605 fps=501 q=-0.0 size=N/A time=00:07:22.31 bitrate=N/A speed=20.9x    frame=10881 fps=502 q=-0.0 size=N/A time=00:07:33.82 bitrate=N/A speed=20.9x    frame=11155 fps=503 q=-0.0 size=N/A time=00:07:45.25 bitrate=N/A speed=  21x    frame=11434 fps=504 q=-0.0 size=N/A time=00:07:56.93 bitrate=N/A speed=  21x    frame=11716 fps=505 q=-0.0 size=N/A time=00:08:08.65 bitrate=N/A speed=  21x    frame=11983 fps=505 q=-0.0 size=N/A time=00:08:19.79 bitrate=N/A speed=21.1x    frame=12256 fps=505 q=-0.0 size=N/A time=00:08:31.17 bitrate=N/A speed=21.1x    frame=12541 fps=507 q=-0.0 size=N/A time=00:08:43.06 bitrate=N/A speed=21.1x    frame=12831 fps=507 q=-0.0 size=N/A time=00:08:55.15 bitrate=N/A speed=21.2x    frame=13098 fps=508 q=-0.0 size=N/A time=00:09:06.29 bitrate=N/A speed=21.2x    frame=13392 fps=509 q=-0.0 size=N/A time=00:09:18.55 bitrate=N/A speed=21.2x    frame=13665 fps=509 q=-0.0 size=N/A time=00:09:29.94 bitrate=N/A speed=21.2x    frame=13944 fps=510 q=-0.0 size=N/A time=00:09:41.58 bitrate=N/A speed=21.3x    frame=14231 fps=511 q=-0.0 size=N/A time=00:09:53.55 bitrate=N/A speed=21.3x    frame=14520 fps=512 q=-0.0 size=N/A time=00:10:05.60 bitrate=N/A speed=21.3x    frame=14814 fps=513 q=-0.0 size=N/A time=00:10:17.86 bitrate=N/A speed=21.4x    frame=15103 fps=514 q=-0.0 size=N/A time=00:10:29.92 bitrate=N/A speed=21.4x    frame=15386 fps=514 q=-0.0 size=N/A time=00:10:41.72 bitrate=N/A speed=21.4x    frame=15637 fps=514 q=-0.0 size=N/A time=00:10:52.19 bitrate=N/A speed=21.4x    frame=15922 fps=514 q=-0.0 size=N/A time=00:11:04.08 bitrate=N/A speed=21.5x    frame=16200 fps=515 q=-0.0 size=N/A time=00:11:15.67 bitrate=N/A speed=21.5x    frame=16485 fps=515 q=-0.0 size=N/A time=00:11:27.56 bitrate=N/A speed=21.5x    frame=16772 fps=516 q=-0.0 size=N/A time=00:11:39.53 bitrate=N/A speed=21.5x    frame=17059 fps=517 q=-0.0 size=N/A time=00:11:51.50 bitrate=N/A speed=21.5x    frame=17347 fps=517 q=-0.0 size=N/A time=00:12:03.51 bitrate=N/A speed=21.6x    frame=17636 fps=518 q=-0.0 size=N/A time=00:12:15.56 bitrate=N/A speed=21.6x    frame=17924 fps=518 q=-0.0 size=N/A time=00:12:27.58 bitrate=N/A speed=21.6x    frame=18193 fps=519 q=-0.0 size=N/A time=00:12:38.79 bitrate=N/A speed=21.6x    frame=18484 fps=519 q=-0.0 size=N/A time=00:12:50.93 bitrate=N/A speed=21.6x    frame=18759 fps=519 q=-0.0 size=N/A time=00:13:02.40 bitrate=N/A speed=21.7x    frame=19050 fps=520 q=-0.0 size=N/A time=00:13:14.54 bitrate=N/A speed=21.7x    frame=19317 fps=520 q=-0.0 size=N/A time=00:13:25.67 bitrate=N/A speed=21.7x    frame=19607 fps=520 q=-0.0 size=N/A time=00:13:37.77 bitrate=N/A speed=21.7x    frame=19893 fps=521 q=-0.0 size=N/A time=00:13:49.70 bitrate=N/A speed=21.7x    frame=20167 fps=521 q=-0.0 size=N/A time=00:14:01.13 bitrate=N/A speed=21.7x    frame=20462 fps=522 q=-0.0 size=N/A time=00:14:13.43 bitrate=N/A speed=21.8x    frame=20741 fps=522 q=-0.0 size=N/A time=00:14:25.07 bitrate=N/A speed=21.8x    frame=21039 fps=523 q=-0.0 size=N/A time=00:14:37.50 bitrate=N/A speed=21.8x    frame=21311 fps=523 q=-0.0 size=N/A time=00:14:48.84 bitrate=N/A speed=21.8x    frame=21591 fps=523 q=-0.0 size=N/A time=00:15:00.52 bitrate=N/A speed=21.8x    frame=21870 fps=523 q=-0.0 size=N/A time=00:15:12.16 bitrate=N/A speed=21.8x    frame=22171 fps=524 q=-0.0 size=N/A time=00:15:24.71 bitrate=N/A speed=21.9x    frame=22434 fps=524 q=-0.0 size=N/A time=00:15:35.68 bitrate=N/A speed=21.9x    frame=22714 fps=524 q=-0.0 size=N/A time=00:15:47.36 bitrate=N/A speed=21.9x    frame=23001 fps=525 q=-0.0 size=N/A time=00:15:59.33 bitrate=N/A speed=21.9x    frame=23297 fps=525 q=-0.0 size=N/A time=00:16:11.67 bitrate=N/A speed=21.9x    frame=23586 fps=525 q=-0.0 size=N/A time=00:16:23.73 bitrate=N/A speed=21.9x    frame=23856 fps=525 q=-0.0 size=N/A time=00:16:34.99 bitrate=N/A speed=21.9x    frame=24142 fps=526 q=-0.0 size=N/A time=00:16:46.92 bitrate=N/A speed=21.9x    frame=24421 fps=526 q=-0.0 size=N/A time=00:16:58.55 bitrate=N/A speed=21.9x    frame=24698 fps=526 q=-0.0 size=N/A time=00:17:10.11 bitrate=N/A speed=21.9x    frame=24968 fps=526 q=-0.0 size=N/A time=00:17:21.37 bitrate=N/A speed=21.9x    frame=25251 fps=526 q=-0.0 size=N/A time=00:17:33.17 bitrate=N/A speed=21.9x    frame=25527 fps=526 q=-0.0 size=N/A time=00:17:44.68 bitrate=N/A speed=  22x    frame=25821 fps=527 q=-0.0 size=N/A time=00:17:56.95 bitrate=N/A speed=  22x    frame=26102 fps=527 q=-0.0 size=N/A time=00:18:08.67 bitrate=N/A speed=  22x    frame=26398 fps=527 q=-0.0 size=N/A time=00:18:21.01 bitrate=N/A speed=  22x    frame=26682 fps=528 q=-0.0 size=N/A time=00:18:32.86 bitrate=N/A speed=  22x    frame=26967 fps=528 q=-0.0 size=N/A time=00:18:44.74 bitrate=N/A speed=  22x    frame=27245 fps=528 q=-0.0 size=N/A time=00:18:56.34 bitrate=N/A speed=  22x    frame=27509 fps=528 q=-0.0 size=N/A time=00:19:07.35 bitrate=N/A speed=  22x    frame=27786 fps=528 q=-0.0 size=N/A time=00:19:18.90 bitrate=N/A speed=  22x    frame=28054 fps=528 q=-0.0 size=N/A time=00:19:30.08 bitrate=N/A speed=  22x    frame=28335 fps=528 q=-0.0 size=N/A time=00:19:41.80 bitrate=N/A speed=  22x    frame=28619 fps=528 q=-0.0 size=N/A time=00:19:53.65 bitrate=N/A speed=  22x    frame=28908 fps=529 q=-0.0 size=N/A time=00:20:05.70 bitrate=N/A speed=  22x    frame=29187 fps=529 q=-0.0 size=N/A time=00:20:17.34 bitrate=N/A speed=22.1x    frame=29473 fps=529 q=-0.0 size=N/A time=00:20:29.26 bitrate=N/A speed=22.1x    frame=29745 fps=529 q=-0.0 size=N/A time=00:20:40.61 bitrate=N/A speed=22.1x    frame=30017 fps=529 q=-0.0 size=N/A time=00:20:51.95 bitrate=N/A speed=22.1x    frame=30302 fps=529 q=-0.0 size=N/A time=00:21:03.84 bitrate=N/A speed=22.1x    frame=30569 fps=529 q=-0.0 size=N/A time=00:21:14.98 bitrate=N/A speed=22.1x    frame=30819 fps=529 q=-0.0 size=N/A time=00:21:25.40 bitrate=N/A speed=  22x    frame=30969 fps=526 q=-0.0 size=N/A time=00:21:31.66 bitrate=N/A speed=  22x    frame=31148 fps=525 q=-0.0 size=N/A time=00:21:39.13 bitrate=N/A speed=21.9x    frame=31317 fps=523 q=-0.0 size=N/A time=00:21:46.17 bitrate=N/A speed=21.8x    frame=31504 fps=522 q=-0.0 size=N/A time=00:21:53.97 bitrate=N/A speed=21.8x    frame=31676 fps=520 q=-0.0 size=N/A time=00:22:01.15 bitrate=N/A speed=21.7x    frame=31867 fps=519 q=-0.0 size=N/A time=00:22:09.11 bitrate=N/A speed=21.6x    frame=32067 fps=518 q=-0.0 size=N/A time=00:22:17.46 bitrate=N/A speed=21.6x    frame=32230 fps=516 q=-0.0 size=N/A time=00:22:24.25 bitrate=N/A speed=21.5x    frame=32430 fps=515 q=-0.0 size=N/A time=00:22:32.60 bitrate=N/A speed=21.5x    frame=32642 fps=514 q=-0.0 size=N/A time=00:22:41.44 bitrate=N/A speed=21.5x    frame=32847 fps=513 q=-0.0 size=N/A time=00:22:49.99 bitrate=N/A speed=21.4x    [Parsed_ssim_10 @ 0000013f21cb2340] SSIM Y:0.996343 (24.368701) U:0.995144 (23.137226) V:0.995270 (23.251804) All:0.995964 (23.940901)
[out#0/null @ 0000013f14824dc0] video:14161KiB audio:257948KiB subtitle:0KiB other streams:0KiB global headers:0KiB muxing overhead: unknown
frame=32957 fps=512 q=-0.0 Lsize=N/A time=00:22:54.58 bitrate=N/A speed=21.4x    
